<?xml version="1.0" encoding="UTF-8"?>
<svg id="Layer_2" xmlns="http://www.w3.org/2000/svg" viewBox="0 0 16 23.45">
  <defs>
    <style>
      .cls-1 {
        fill: #fcd029;
      }

      .cls-2 {
        fill: #744cda;
      }

      .cls-3 {
        fill: #fed020;
      }
    </style>
  </defs>
  <g id="Layer_1-2" data-name="Layer_1">
    <g>
      <path class="cls-2" d="M9.18,22.97c.2-.73.34-1.5.35-2.28.02-2.33-.66-4.48-1.7-6.54-.66-1.3-1.55-2.46-2.15-3.78-.93-2.02-1.28-4.11-.47-6.26.63-1.65,1.68-2.98,3.11-4,.09-.06.2-.16.29-.08.15.13,0,.26-.06.37-.68,1.03-1.1,2.16-1.28,3.39-.31,2.14,0,4.18.85,6.17.59,1.4,1.5,2.63,2.04,4.05.94,2.46.95,4.93.05,7.41-.21.57-.4,1.15-.73,1.67-.05.08-.1.23-.24.17-.1-.04-.07-.16-.06-.28Z"/>
      <path class="cls-3" d="M2.04,7.08c-.27.8-.67,1.39-.86,2.07-.45,1.6-.47,3.19.09,4.77.48,1.37,1.21,2.57,2.29,3.53.77.68,1.68,1.13,2.66,1.43.07.02.16.07.22,0,.08-.11-.01-.2-.06-.3-.44-.87-1.09-1.59-1.65-2.38-.72-1-1.27-2.08-1.56-3.27-.32-1.34-.39-2.71-.06-4.08.03-.11.06-.23.2-.21.13.02.15.15.15.26.04.95.33,1.83.73,2.69.31.66.76,1.21,1.17,1.8.89,1.26,1.82,2.51,2.44,3.92.81,1.83.97,3.72.19,5.62-.04.1-.08.2-.14.29-.06.09-.1.23-.23.2-.16-.03-.13-.2-.12-.31.02-.77-.05-1.52-.18-2.28-.08-.47-.36-.67-.77-.74-.9-.15-1.73-.49-2.52-.94-1.72-.99-2.9-2.42-3.56-4.29-.83-2.36-.53-4.6.68-6.74.21-.36.44-.71.89-1.06Z"/>
      <path class="cls-1" d="M14.61,16.51c-.03-.41.21-.77.32-1.14.64-2.11.32-4.1-.7-6.01-.86-1.62-2.17-2.75-3.86-3.43-.15-.06-.31-.13-.44,0-.15.15,0,.29.07.42.66,1.36,1.48,2.64,2.21,3.96.69,1.26.95,2.59.81,4.01-.06.6-.3,1.14-.54,1.68-.05.11-.11.26-.26.22-.15-.04-.12-.2-.13-.32-.03-.71.04-1.43-.13-2.14-.26-1.12-.78-2.1-1.45-3.01-.96-1.33-1.71-2.75-2.09-4.35-.29-1.2-.35-2.4-.06-3.6.03-.13.06-.31.23-.31.16,0,.16.17.21.27.15.35.13.73.23,1.09.12.42.38.58.75.67,3.22.72,5.19,2.81,5.98,5.91.52,2.04.25,4.1-.9,5.95-.05.08-.09.17-.24.14Z"/>
    </g>
  </g>
</svg>