<svg width="123" height="34" viewBox="0 0 123 34" fill="none" xmlns="http://www.w3.org/2000/svg">
<g clip-path="url(#clip0_2186_1345)">
<path d="M16.5 12.3436V3.65638C16.5 1.6347 14.8653 0 12.8436 0C6.0246 0 0.5 5.5246 0.5 12.3436C0.5 14.3653 2.1347 16 4.15638 16H12.8436C14.8653 16 16.5 14.3653 16.5 12.3436Z" fill="white"/>
<path d="M21.1564 16H29.8436C31.8653 16 33.5 14.3653 33.5 12.3436C33.5 5.5246 27.9754 0 21.1564 0C19.1347 0 17.5 1.6347 17.5 3.65638V12.3436C17.5 14.3653 19.1347 16 21.1564 16Z" fill="#FFD11E"/>
<path d="M17.5 20.6564V29.3436C17.5 31.3653 19.1347 33 21.1564 33C27.9754 33 33.5 27.4754 33.5 20.6564C33.5 18.6347 31.8653 17 29.8436 17H21.1564C19.1347 17 17.5 18.6347 17.5 20.6564Z" fill="white"/>
<path d="M12.8436 17H4.15638C2.1347 17 0.5 18.6347 0.5 20.6564C0.5 27.4754 6.0246 33 12.8436 33C14.8653 33 16.5 31.3653 16.5 29.3436V20.6564C16.5 18.6347 14.8653 17 12.8436 17Z" fill="white"/>
</g>
<path d="M45.988 25.5V8.22H50.836L56.116 24.876H54.412L59.692 8.22H64.564V25.5H61.492V9.252H61.996L56.86 25.5H53.524L48.436 9.396H48.916V25.5H45.988ZM73.1665 25.74C71.8705 25.74 70.7345 25.468 69.7585 24.924C68.7985 24.38 68.0465 23.628 67.5025 22.668C66.9745 21.708 66.7105 20.604 66.7105 19.356C66.7105 18.108 66.9745 17.012 67.5025 16.068C68.0465 15.108 68.7985 14.364 69.7585 13.836C70.7185 13.292 71.8385 13.02 73.1185 13.02C74.3345 13.02 75.3905 13.276 76.2865 13.788C77.1825 14.284 77.8785 14.988 78.3745 15.9C78.8705 16.812 79.1185 17.876 79.1185 19.092C79.1185 19.316 79.1105 19.524 79.0945 19.716C79.0785 19.908 79.0545 20.1 79.0225 20.292H68.5825V18.18H76.6945L76.0705 18.756C76.0705 17.604 75.8065 16.74 75.2785 16.164C74.7505 15.588 74.0145 15.3 73.0705 15.3C72.0465 15.3 71.2305 15.652 70.6225 16.356C70.0305 17.06 69.7345 18.076 69.7345 19.404C69.7345 20.716 70.0305 21.724 70.6225 22.428C71.2305 23.116 72.0865 23.46 73.1905 23.46C73.8305 23.46 74.3905 23.34 74.8705 23.1C75.3505 22.86 75.7025 22.492 75.9265 21.996H78.7825C78.3825 23.148 77.7025 24.06 76.7425 24.732C75.7985 25.404 74.6065 25.74 73.1665 25.74ZM81.3814 25.5V13.26H84.3334V16.212H84.4054V25.5H81.3814ZM84.4054 19.116L84.0934 16.212C84.3814 15.172 84.8694 14.38 85.5574 13.836C86.2454 13.292 87.0694 13.02 88.0294 13.02C88.3654 13.02 88.6054 13.052 88.7494 13.116V15.972C88.6694 15.94 88.5574 15.924 88.4134 15.924C88.2694 15.908 88.0934 15.9 87.8854 15.9C86.7174 15.9 85.8454 16.156 85.2694 16.668C84.6934 17.18 84.4054 17.996 84.4054 19.116ZM95.9712 25.74C94.6752 25.74 93.5392 25.468 92.5632 24.924C91.6032 24.38 90.8512 23.628 90.3072 22.668C89.7792 21.708 89.5152 20.604 89.5152 19.356C89.5152 18.108 89.7792 17.012 90.3072 16.068C90.8512 15.108 91.6032 14.364 92.5632 13.836C93.5232 13.292 94.6432 13.02 95.9232 13.02C97.1392 13.02 98.1952 13.276 99.0912 13.788C99.9872 14.284 100.683 14.988 101.179 15.9C101.675 16.812 101.923 17.876 101.923 19.092C101.923 19.316 101.915 19.524 101.899 19.716C101.883 19.908 101.859 20.1 101.827 20.292H91.3872V18.18H99.4992L98.8752 18.756C98.8752 17.604 98.6112 16.74 98.0832 16.164C97.5552 15.588 96.8192 15.3 95.8752 15.3C94.8512 15.3 94.0352 15.652 93.4272 16.356C92.8352 17.06 92.5392 18.076 92.5392 19.404C92.5392 20.716 92.8352 21.724 93.4272 22.428C94.0352 23.116 94.8912 23.46 95.9952 23.46C96.6352 23.46 97.1952 23.34 97.6752 23.1C98.1552 22.86 98.5072 22.492 98.7312 21.996H101.587C101.187 23.148 100.507 24.06 99.5472 24.732C98.6032 25.404 97.4112 25.74 95.9712 25.74ZM104.186 25.5V8.22H107.21V25.5H104.186ZM111.189 30.42L114.357 23.316L114.909 22.404L118.365 13.26H121.581L114.261 30.42H111.189ZM113.901 25.38L108.933 13.26H112.221L116.373 24.252L113.901 25.38Z" fill="white"/>
<defs>
<clipPath id="clip0_2186_1345">
<rect width="34" height="34" fill="white" transform="translate(0.5)"/>
</clipPath>
</defs>
</svg>
