<?xml version="1.0" encoding="UTF-8"?>
<svg id="Layer_2" xmlns="http://www.w3.org/2000/svg" viewBox="0 0 32 46.9">
  <defs>
    <style>
      .cls-1 {
        fill: #fcd029;
      }

      .cls-2 {
        fill: #744cda;
      }

      .cls-3 {
        fill: #fed020;
      }
    </style>
  </defs>
  <g id="Layer_1-2" data-name="Layer_1">
    <g>
      <path class="cls-2" d="M18.36,45.93c.4-1.45.68-2.99.7-4.56.05-4.66-1.31-8.97-3.4-13.09-1.31-2.59-3.1-4.91-4.31-7.55-1.85-4.05-2.57-8.21-.93-12.52,1.25-3.29,3.35-5.96,6.23-8,.17-.12.39-.33.58-.16.29.26.01.52-.13.74-1.36,2.07-2.21,4.33-2.56,6.77-.62,4.27.02,8.36,1.7,12.33,1.18,2.79,3,5.26,4.08,8.1,1.88,4.92,1.9,9.87.1,14.81-.41,1.14-.81,2.3-1.46,3.34-.1.17-.2.45-.48.34-.2-.08-.14-.32-.13-.56Z"/>
      <path class="cls-3" d="M4.08,14.16c-.53,1.6-1.34,2.77-1.72,4.13-.89,3.21-.94,6.37.17,9.55.96,2.74,2.41,5.14,4.58,7.06,1.54,1.36,3.35,2.26,5.31,2.86.15.05.32.15.43,0,.16-.22-.02-.4-.12-.59-.88-1.74-2.18-3.19-3.3-4.76-1.43-2-2.55-4.17-3.12-6.54-.65-2.68-.77-5.43-.11-8.15.05-.22.11-.47.4-.41.26.05.29.31.3.52.07,1.91.66,3.66,1.47,5.37.62,1.31,1.52,2.43,2.34,3.6,1.78,2.53,3.64,5.01,4.89,7.85,1.62,3.67,1.94,7.44.37,11.25-.08.2-.17.4-.28.59-.11.18-.2.46-.45.41-.32-.07-.26-.39-.25-.62.04-1.53-.1-3.05-.35-4.56-.16-.94-.72-1.34-1.54-1.48-1.81-.3-3.46-.98-5.04-1.88-3.45-1.98-5.8-4.84-7.11-8.58-1.66-4.71-1.06-9.19,1.36-13.49.41-.73.88-1.42,1.79-2.11Z"/>
      <path class="cls-1" d="M29.21,33.01c-.05-.83.43-1.53.65-2.27,1.27-4.23.64-8.2-1.4-12.02-1.73-3.23-4.33-5.5-7.73-6.86-.3-.12-.62-.26-.88,0-.31.3.01.57.14.83,1.33,2.72,2.96,5.27,4.42,7.93,1.38,2.52,1.9,5.19,1.61,8.03-.12,1.2-.61,2.28-1.08,3.37-.1.22-.22.52-.52.44-.29-.08-.24-.4-.25-.64-.06-1.43.08-2.86-.26-4.29-.52-2.23-1.57-4.2-2.9-6.02-1.93-2.65-3.41-5.5-4.19-8.71-.58-2.4-.69-4.8-.11-7.21.06-.27.11-.61.45-.63.32-.02.32.33.42.55.3.69.25,1.46.46,2.19.24.83.75,1.17,1.49,1.33,6.45,1.44,10.38,5.62,11.95,11.82,1.03,4.07.51,8.2-1.8,11.91-.1.15-.18.34-.49.27Z"/>
    </g>
  </g>
</svg>