<?xml version="1.0" encoding="UTF-8"?>
<svg id="Layer_2" xmlns="http://www.w3.org/2000/svg" viewBox="0 0 672.2 303.14">
  <defs>
    <style>
      .cls-1 {
        fill: #fcd029;
      }
    </style>
  </defs>
  <g id="Layer_1-2" data-name="Layer_1">
    <g>
      <path class="cls-1" d="M118.68,296.88c2.61-9.4,4.43-19.33,4.53-29.44.3-30.14-8.48-57.97-21.95-84.58-8.48-16.74-20.02-31.75-27.83-48.83-11.98-26.17-16.6-53.09-6.03-80.92C75.48,31.83,89.05,14.63,107.65,1.44c1.13-.8,2.55-2.11,3.77-1.03,1.88,1.67.08,3.38-.83,4.77-8.76,13.37-14.26,27.97-16.56,43.76-4.03,27.62.12,54.01,11.01,79.7,7.65,18.06,19.36,34.02,26.36,52.34,12.15,31.8,12.26,63.78.65,95.74-2.68,7.37-5.23,14.86-9.46,21.56-.68,1.07-1.3,2.93-3.1,2.21-1.32-.53-.89-2.06-.81-3.61Z"/>
      <path class="cls-1" d="M26.38,91.55c-3.45,10.35-8.69,17.92-11.14,26.71-5.77,20.73-6.05,41.18,1.13,61.71,6.18,17.69,15.58,33.19,29.61,45.62,9.93,8.8,21.67,14.59,34.33,18.51.94.29,2.05.94,2.78-.03,1.06-1.41-.13-2.6-.75-3.83-5.67-11.24-14.08-20.6-21.33-30.74-9.27-12.95-16.48-26.94-20.19-42.28-4.19-17.34-4.98-35.07-.73-52.7.34-1.41.72-3.02,2.59-2.66,1.67.32,1.88,1.98,1.94,3.39.48,12.32,4.26,23.66,9.49,34.72,4.01,8.48,9.8,15.7,15.12,23.26,11.48,16.33,23.5,32.41,31.6,50.71,10.49,23.7,12.55,48.11,2.41,72.7-.54,1.3-1.09,2.61-1.83,3.8-.71,1.15-1.31,2.98-2.94,2.65-2.1-.43-1.65-2.54-1.61-4.04.25-9.91-.65-19.68-2.27-29.48-1.01-6.1-4.63-8.67-9.93-9.55-11.69-1.93-22.37-6.3-32.61-12.18-22.28-12.79-37.46-31.3-45.98-55.48-10.73-30.47-6.83-59.42,8.79-87.19,2.65-4.72,5.72-9.17,11.54-13.65Z"/>
      <path class="cls-1" d="M188.81,213.37c-.35-5.34,2.75-9.9,4.19-14.68,8.24-27.33,4.16-53-9.04-77.67-11.18-20.88-28.02-35.52-49.95-44.37-1.91-.77-4-1.68-5.67-.05-2,1.94.09,3.7.91,5.39,8.57,17.6,19.14,34.09,28.54,51.23,8.94,16.29,12.27,33.53,10.42,51.88-.78,7.73-3.92,14.75-7,21.76-.63,1.44-1.45,3.36-3.38,2.84-1.89-.51-1.55-2.59-1.62-4.17-.38-9.24.51-18.47-1.66-27.7-3.39-14.43-10.15-27.13-18.72-38.94-12.45-17.14-22.06-35.52-27.07-56.27-3.75-15.54-4.47-30.99-.72-46.58.42-1.72.72-3.95,2.93-4.07,2.05-.11,2.09,2.16,2.69,3.55,1.96,4.48,1.64,9.44,2.98,14.13,1.54,5.4,4.88,7.55,9.65,8.62,41.69,9.34,67.07,36.32,77.24,76.37,6.68,26.32,3.28,52.97-11.6,76.95-.62,1-1.17,2.22-3.14,1.77Z"/>
      <g>
        <path d="M484.41,150.66c-1.93,2.57-1.2,4.85-1.2,6.95-.07,21.18-.03,42.36-.05,63.53,0,8.03-.25,8.32-8.03,8.3-15.67-.05-13.91,1.6-13.94-13.87-.06-32.67-.03-65.35,0-98.03,0-7.9.35-7.38,8.15-8.34,11.03-1.36,17.85,2.5,23.29,12.31,7.41,13.37,16.37,25.9,24.75,38.73,3.38,5.18,3.86,5.12,7.27-.13,9.79-15.04,19.68-30.02,29.27-45.18,2.56-4.04,5.51-5.75,10.34-5.64,19.19.42,16.8-2.21,16.86,16.7.1,31.67.04,63.33.02,95,0,8.25-.2,8.45-8.53,8.44-14.93-.03-13.39,1.25-13.42-13.21-.05-22.1,0-43.99-.02-66.11-2.98,1.01-3.58,3.33-4.72,5.06-9.87,14.99-19.66,30.03-29.46,45.07-3.69,5.67-4.56,5.67-8.16.09-10.89-16.58-21.1-33.35-32.41-49.68Z"/>
        <path d="M452.85,169.54c-.12,33.78-28.67,62.51-62.15,62.17-83.34-3.94-82.29-121.43.33-124.71,33.64.26,61.94,28.89,61.83,62.54ZM351.01,169.29c-1.74,18.16,14.64,40.25,40.13,40.21,21.46-.03,39.23-17.96,39.53-39.34.32-22.27-17.46-40.78-39.86-40.86-23.81-.09-41.32,21.08-39.8,39.99Z"/>
        <path d="M228.69,169.59c0-17.35-.02-34.71,0-52.06.01-7.63.38-8.06,7.71-8.04,16.29.06,14.21-1.52,14.33,14.13.07,9.28.22,18.57-.06,27.84-.15,5.1,1.92,6.71,6.79,6.61,11.09-.22,22.2-.25,33.29,0,5.18.12,7.24-1.67,7.11-6.99-.27-11.09-.09-22.19-.07-33.29.02-8.09.21-8.34,8-8.31,16.44.06,14.86-1.64,14.89,14.99.04,31.68.03,63.36,0,95.04,0,9.5-.46,9.95-9.85,9.92-14.24-.04-13.01,1.3-13.05-13.02-.03-9.89-.1-19.78.02-29.66.05-4.03-1.45-5.91-5.66-5.86-11.9.12-23.81.13-35.71,0-4.12-.04-5.78,1.58-5.73,5.74.14,11.9-.13,23.81.11,35.71.1,5.14-1.58,7.27-6.94,7.17-17.57-.35-15.05,1.83-15.18-15.14-.12-14.93-.02-29.86-.02-44.8Z"/>
        <path d="M590.72,169.67c0-17.74.14-35.49-.08-53.23-.06-5.26,1.85-7.08,7.06-7.04,22.58.18,45.16.17,67.74.02,4.95-.03,6.81,1.79,6.72,6.75-.32,17.65,1.87,15.1-15.02,15.26-12.7.12-25.41.17-38.1-.05-4.71-.08-6.58,1.59-6.32,6.32.28,5.03.24,10.09.02,15.12-.19,4.31,1.56,5.46,5.75,5.34,10.68-.31,21.37,0,32.05-.19,4.34-.07,6.78,1.45,7.57,5.87.67,3.76,1.71,7.47,2.78,11.14,1.25,4.25-.23,5.99-4.61,5.96-11.89-.09-23.8.26-35.68-.13-6.11-.2-8.49,1.79-7.89,7.93.41,4.19.27,8.47.04,12.69-.24,4.46,1.61,6.05,6.03,6,15.32-.16,30.65.11,45.97-.14,5.39-.09,7.59,1.56,7.46,7.24-.38,17.04,1.68,14.82-14.84,14.89-19.56.09-39.11.04-58.67.01-7.6-.01-7.94-.34-7.96-7.76-.03-17.34-.01-34.68,0-52.02Z"/>
        <path d="M461.8,54.93c5.45,0,10.9.06,16.35-.02,4.54-.06,5.99,2.43,5.86,6.53-1.21,40.49-54.82,51.93-71.37,13.92-13.69-33.8,26.88-65.39,55.8-43.64,1.95,1.5,6,3.35,2.75,6.48-2.79,2.68-4.3,9.06-10.9,4.81-24.56-14.88-48.66,14.13-29.81,35.02,9.73,9.94,26.85,8.58,35.09-2.8,1.17-1.62,2.75-3.38,1.74-5.45-.96-1.98-3.22-1.23-4.95-1.26-5.85-.09-11.71.11-17.55-.11-2.5-.09-6.15,1.4-6.74-2.97-.64-4.77,2.88-10.28,6.78-10.43,5.64-.22,11.3-.06,16.95-.06,0-.01,0-.02,0-.03Z"/>
        <path d="M556.95,61.05c0-9.27.19-18.54-.07-27.81-.16-5.55,2.14-7.66,7.54-7.35,7.63.44,15.33-.71,22.92.71,11.05,2.08,18.72,8.22,21.69,19.31,2.87,10.69-.76,19.47-9,26.35-2.89,2.41-2.77,4.39-.91,7.16,2.92,4.35,5.67,8.81,8.43,13.26,1.84,2.97.78,4.42-2.57,4.74-6.35.61-11.99.1-15.16-6.77-1.5-3.25-3.91-6.1-5.93-9.11-1.02-1.52-2.13-2.87-4.11-3.3-2.12-.46-5.97.49-5.26-3.14.84-4.29,1.11-9.56,6.74-11.15,1.33-.38,2.8-.28,4.2-.43,6.91-.72,10.3-4.62,10.2-11.7-.09-6.53-4.23-10.89-10.81-11.38-13.35-1-13.44-.92-13.44,12.53,0,12.49-.14,24.99.05,37.48.08,5.21-1.99,7.14-7.18,7.12-4.98-.02-7.51-1.5-7.39-6.9.21-9.87.06-19.75.06-29.62Z"/>
        <path d="M330.46,45.37c-3.55,7.96-6.9,15.48-10.24,23-1.05,2.36-.08,3.41,2.34,3.44,2.82.03,5.64.1,8.47.06,2.89-.03,5.17.94,6.24,3.78,1.03,2.76,4.22,5.43,2.75,8.23-1.6,3.05-5.49,1.27-8.37,1.51-9.2,1.14-19.94-4.06-23.22,8.48-.92,3.46-11.14,5.14-13.95,2.88-1.7-1.37-.92-2.93-.27-4.37,9.34-20.77,18.75-41.51,28.03-62.3,1.91-4.27,5.44-4.13,9.13-4.15,3.54-.01,6.79.11,8.56,4.08,9.23,20.6,18.53,41.16,27.87,61.71,2.04,4.49.16,5.56-4.1,5.84-5.66.38-9.18-1-11.58-6.9-5.53-13.62-11.96-26.88-18.07-40.26-.73-1.6-1.08-3.5-3.61-5.03Z"/>
        <path d="M510.53,85.45c-1.81,0-3.65.2-5.44-.04-5.53-.72-9.31.99-10.98,6.72-.88,3.02-2.74,5.31-6.46,5.32-7.7.02-11.76.96-6.96-9.22,8.76-18.59,17.05-37.41,25.29-56.24,2-4.56,4.81-6.19,9.73-6.19,5.1,0,8,1.53,10.13,6.42,8.2,18.84,16.95,37.45,25.24,56.26,1.1,2.5,4.83,5.58.87,8.45-3.53,2.55-11.91.12-13.65-3.65-5.57-12.08-10.98-24.23-16.56-36.3-1.66-3.59-2.38-9.77-5.71-9.88-3.72-.12-3.81,6.22-5.77,9.59-1.92,3.29-3.14,6.98-4.8,10.42-1.7,3.52-.47,4.83,3.16,4.74,2.42-.06,4.84.01,7.26.03,2.29.02,4.64.24,5.62,2.68,1.25,3.08,4.58,6.13,2.89,9.38-1.54,2.97-5.52,1.18-8.42,1.48-1.8.18-3.62.03-5.44.03Z"/>
        <path d="M267.58,98.64c-35.96.58-51.37-41.01-26.47-64.1,12.07-11.49,31.39-13.37,45.1-3.57,2.08,2.18,6.86,3.32,3.84,7.97-3.62,5.57-6.67,6.46-11.71,3.51-22.54-13.46-46.73,13.5-30.18,34.06,7.54,8.76,20.05,10.69,30.22,4.67,4.83-2.86,10.12-1.03,12.43,4.17.97,2.19-.25,3.35-1.64,4.64-6.57,6.11-14.59,8.25-21.59,8.65Z"/>
        <path d="M610.96,25.92c5.17-.78,8.4,1.63,10.92,5.9,3.89,6.6,8,13.06,12.15,19.5,3.38,5.24,3.71,5.17,7.12-.31,4.16-6.67,8.3-13.35,12.51-20,2.87-4.54,10.67-6.91,15.44-4.72,3.42,1.57,1.36,3.65.29,5.4-6.56,10.64-12.92,21.41-19.92,31.76-4.05,5.99-6,12.11-5.27,19.25.27,2.59-.15,5.25.08,7.86.46,5.29-1.87,7.08-7.06,7.04-5.03-.04-7.3-2.02-6.54-6.86,2.23-14.16-3.12-25.84-11.18-36.94-4.73-6.51-8.74-13.55-12.94-20.43-1.1-1.79-3.47-3.56-2.2-5.87,1.42-2.58,4.42-1.05,6.62-1.57Z"/>
        <path d="M372.69,61.88c0-9.87.14-19.74-.06-29.61-.09-4.71,1.82-6.46,6.45-6.4,4.5.05,7.31,1.07,7.25,6.37-.15,14.9.13,29.81-.12,44.71-.09,5.21,1.56,7.37,6.91,7,5.01-.34,10.07.02,15.1-.07,4.2-.08,5.77,2.09,5.67,6-.09,3.79-.19,7.54-5.48,7.54-10.27,0-20.54-.02-30.81.01-4.13.01-4.96-2.5-4.94-5.95.06-9.87.02-19.74.02-29.61Z"/>
      </g>
      <g>
        <path d="M384.4,275.58c0,2.91-.92,5.13-2.77,6.68-1.85,1.54-4.52,2.32-8.01,2.32-3.08,0-5.5-.67-7.26-2.01s-2.91-3.36-3.44-6.06l4.87-.84c.7,3.29,2.73,4.94,6.08,4.94,3.65,0,5.48-1.57,5.48-4.72,0-.9-.18-1.65-.54-2.22-.36-.57-.86-1.06-1.49-1.44-.63-.39-1.38-.71-2.23-.98-.86-.27-1.77-.54-2.75-.83-2.36-.68-4.06-1.38-5.12-2.12-1.06-.73-1.87-1.65-2.44-2.76-.57-1.11-.85-2.49-.85-4.14,0-2.55.85-4.53,2.54-5.95,1.7-1.42,4.05-2.13,7.07-2.13s5.12.57,6.74,1.71c1.62,1.14,2.73,2.94,3.35,5.38l-4.94.88c-.65-2.77-2.38-4.16-5.2-4.16-1.45,0-2.57.35-3.35,1.07-.78.71-1.18,1.7-1.18,2.97,0,.88.18,1.6.53,2.17.35.57.88,1.06,1.59,1.48.7.42,2.06.93,4.08,1.55,2.36.73,4.04,1.38,5.05,1.93,1.01.55,1.8,1.17,2.39,1.84.59.68,1.04,1.46,1.34,2.35.3.89.45,1.93.45,3.11Z"/>
        <path d="M405.23,284.15h-17.45v-30.39h16.56v4.16h-11.32v8.71h9.98v4.05h-9.98v9.34h12.21v4.12Z"/>
        <path d="M430.58,262.65c0,2.16-.61,3.99-1.84,5.5-1.23,1.51-2.97,2.52-5.21,3.02l8.43,12.98h-5.97l-7.44-12.38h-4.42v12.38h-5.24v-30.39h10.68c3.52,0,6.24.77,8.15,2.32,1.91,1.55,2.87,3.73,2.87,6.57ZM425.34,262.69c0-1.67-.55-2.94-1.64-3.82s-2.65-1.32-4.66-1.32h-4.92v10.48h5.09c1.91,0,3.41-.47,4.5-1.41,1.08-.94,1.63-2.25,1.63-3.94Z"/>
        <path d="M442.22,284.15l-11.15-30.39h5.46l6.81,20.34c.65,1.94,1.21,3.89,1.7,5.84.59-2.23,1.14-4.14,1.66-5.74l6.77-20.44h5.46l-11.13,30.39h-5.59Z"/>
        <path d="M466.46,284.15h-5.26v-30.39h5.26v30.39Z"/>
        <path d="M483.61,284.58c-4.05,0-7.21-1.39-9.48-4.18-2.26-2.79-3.4-6.65-3.4-11.58s1.11-8.71,3.34-11.43c2.23-2.72,5.39-4.08,9.49-4.08,2.83,0,5.17.62,7.02,1.85,1.85,1.24,3.24,3.19,4.17,5.87l-4.61,1.64c-.49-1.7-1.29-2.98-2.39-3.86-1.11-.88-2.47-1.31-4.08-1.31-2.44,0-4.33.98-5.65,2.94-1.32,1.96-1.98,4.76-1.98,8.38s.68,6.43,2.03,8.5,3.21,3.11,5.56,3.11c1.6,0,2.97-.49,4.11-1.48,1.14-.99,1.99-2.39,2.53-4.22l4.64,1.81c-2.01,5.36-5.78,8.04-11.3,8.04Z"/>
        <path d="M515.4,284.15h-17.45v-30.39h16.56v4.16h-11.32v8.71h9.98v4.05h-9.98v9.34h12.21v4.12Z"/>
        <path d="M537.94,275.58c0,2.91-.92,5.13-2.77,6.68-1.85,1.54-4.52,2.32-8.01,2.32-3.08,0-5.5-.67-7.26-2.01s-2.91-3.36-3.44-6.06l4.87-.84c.7,3.29,2.73,4.94,6.08,4.94,3.65,0,5.48-1.57,5.48-4.72,0-.9-.18-1.65-.54-2.22-.36-.57-.86-1.06-1.49-1.44-.63-.39-1.38-.71-2.23-.98-.86-.27-1.77-.54-2.75-.83-2.36-.68-4.06-1.38-5.12-2.12-1.06-.73-1.87-1.65-2.44-2.76-.57-1.11-.85-2.49-.85-4.14,0-2.55.85-4.53,2.54-5.95,1.7-1.42,4.05-2.13,7.07-2.13s5.12.57,6.74,1.71c1.62,1.14,2.73,2.94,3.35,5.38l-4.94.88c-.65-2.77-2.38-4.16-5.2-4.16-1.45,0-2.57.35-3.35,1.07-.78.71-1.18,1.7-1.18,2.97,0,.88.18,1.6.53,2.17.35.57.88,1.06,1.59,1.48.7.42,2.06.93,4.08,1.55,2.36.73,4.04,1.38,5.05,1.93,1.01.55,1.8,1.17,2.39,1.84.59.68,1.04,1.46,1.34,2.35.3.89.45,1.93.45,3.11Z"/>
      </g>
    </g>
  </g>
</svg>